<svg width="256" height="256" viewBox="0 0 256 256" xmlns="http://www.w3.org/2000/svg" xmlns:xlink="http://www.w3.org/1999/xlink" xml:space="preserve" overflow="hidden"><g stroke-width="0" stroke-miterlimit="10" fill="none" transform="matrix(2.81 0 0 2.81 1.40659 1.40659)"><path d="M45 90C44.366 90 43.732 89.828 43.171 89.484 17.867 73.972 5.206 52.473 4.461 23.759 4.427 22.445 5.132 21.223 6.286 20.594L43.326 0.426C44.37-0.142 45.631-0.142 46.674 0.426L83.714 20.594C84.868 21.222 85.573 22.445 85.539 23.759 84.794 52.472 72.132 73.971 46.829 89.484 46.269 89.828 45.634 90 45 90ZM11.539 25.705C12.743 50.111 23.71 68.683 45 82.368 66.289 68.682 77.257 50.112 78.461 25.705L45 7.485 11.539 25.705Z" stroke-width="1" fill="#7C3AED"/><path d="M43.297 56.812C42.422 56.812 41.59 56.43 41.02 55.764L30.223 43.17C29.144 41.912 29.29 40.019 30.548 38.941 31.806 37.862 33.699 38.007 34.778 39.266L43.226 49.12 55.164 34.307C56.204 33.016 58.093 32.813 59.383 33.854 60.673 34.894 60.876 36.783 59.836 38.073L45.633 55.694C45.073 56.388 44.234 56.798 43.342 56.811 43.327 56.812 43.312 56.812 43.297 56.812Z" stroke-width="1" fill="#7C3AED"/></g></svg>