<svg viewBox="0 0 640 512" xmlns="http://www.w3.org/2000/svg" xmlns:xlink="http://www.w3.org/1999/xlink" overflow="hidden"><path d="M524.531 69.836C524.368 69.5193 524.097 69.2712 523.767 69.136 485.644 51.6446 445.413 39.1719 404.081 32.03 403.311 31.8868 402.536 32.2537 402.158 32.94 396.68 42.8829 391.707 53.0959 387.258 63.54 342.705 56.7768 297.385 56.7768 252.832 63.54 248.354 53.0694 243.301 42.8538 237.697 32.94 237.304 32.2701 236.54 31.9091 235.773 32.03 194.437 39.1569 154.203 51.6306 116.085 69.137 115.759 69.2753 115.483 69.5115 115.297 69.813 39.068 183.651 18.186 294.69 28.43 404.354 28.4882 404.897 28.7643 405.393 29.195 405.729 73.5824 438.595 123.23 463.681 176.02 479.918 176.781 480.146 177.604 479.877 178.083 479.242 189.421 463.815 199.467 447.479 208.12 430.4 208.585 429.484 208.219 428.364 207.303 427.9 207.237 427.867 207.17 427.837 207.101 427.812 191.259 421.75 175.921 414.443 161.233 405.959 160.336 405.431 160.036 404.276 160.563 403.379 160.688 403.167 160.852 402.982 161.048 402.833 164.13 400.524 167.214 398.122 170.157 395.696 170.69 395.257 171.426 395.158 172.057 395.44 268.286 439.357 372.467 439.357 467.557 395.44 468.189 395.139 468.939 395.23 469.481 395.673 472.425 398.099 475.508 400.524 478.613 402.833 479.446 403.456 479.617 404.637 478.993 405.47 478.846 405.667 478.662 405.833 478.451 405.959 463.796 414.515 448.445 421.817 432.561 427.789 431.593 428.157 431.107 429.24 431.475 430.208 431.5 430.274 431.529 430.338 431.561 430.4 440.358 447.384 450.39 463.699 461.575 479.215 462.041 479.868 462.871 480.15 463.638 479.915 516.522 463.733 566.257 438.644 610.7 405.729 611.138 405.41 611.417 404.917 611.465 404.377 623.729 277.594 590.933 167.465 524.531 69.836ZM222.491 337.58C193.519 337.58 169.647 310.993 169.647 278.341 169.647 245.689 193.056 219.1 222.491 219.1 252.156 219.1 275.797 245.92 275.334 278.339 275.334 310.993 251.924 337.58 222.491 337.58ZM417.871 337.58C388.9 337.58 365.028 310.993 365.028 278.341 365.028 245.689 388.437 219.1 417.871 219.1 447.538 219.1 471.178 245.92 470.715 278.339 470.715 310.993 447.538 337.58 417.871 337.58Z" fill="#6B7290"/></svg>