<svg xmlns="http://www.w3.org/2000/svg" xmlns:xlink="http://www.w3.org/1999/xlink" version="1.1" width="256" height="256" viewBox="0 0 256 256" xml:space="preserve">
<g style="stroke: none; stroke-width: 0; stroke-dasharray: none; stroke-linecap: butt; stroke-linejoin: miter; stroke-miterlimit: 10; fill: none; fill-rule: nonzero; opacity: 1;" transform="translate(1.4065934065934016 1.4065934065934016) scale(2.81 2.81)">
	<path d="M 42.778 76.355 c -0.552 0 -1 -0.447 -1 -1 c 0 -14.857 -12.087 -26.944 -26.944 -26.944 c -0.552 0 -1 -0.447 -1 -1 s 0.448 -1 1 -1 c 14.857 0 26.944 -12.087 26.944 -26.944 c 0 -0.552 0.448 -1 1 -1 s 1 0.448 1 1 c 0 14.857 12.087 26.944 26.945 26.944 c 0.553 0 1 0.447 1 1 s -0.447 1 -1 1 c -14.857 0 -26.945 12.087 -26.945 26.944 C 43.778 75.908 43.33 76.355 42.778 76.355 z M 22.389 47.411 c 9.899 2.679 17.71 10.49 20.389 20.39 c 2.679 -9.899 10.491 -17.711 20.39 -20.39 c -9.899 -2.679 -17.711 -10.49 -20.39 -20.389 C 40.099 36.921 32.288 44.732 22.389 47.411 z" style="stroke: none; stroke-width: 1; stroke-dasharray: none; stroke-linecap: butt; stroke-linejoin: miter; stroke-miterlimit: 10; fill: rgb(124,58,237); fill-rule: nonzero; opacity: 1;" transform=" matrix(1 0 0 1 0 0) " stroke-linecap="round"/>
	<path d="M 75.027 31.439 c -0.553 0 -1 -0.448 -1 -1 c 0 -7.153 -5.819 -12.972 -12.972 -12.972 c -0.553 0 -1 -0.448 -1 -1 s 0.447 -1 1 -1 c 7.152 0 12.972 -5.819 12.972 -12.972 c 0 -0.552 0.447 -1 1 -1 s 1 0.448 1 1 c 0 7.153 5.819 12.972 12.973 12.972 c 0.553 0 1 0.448 1 1 s -0.447 1 -1 1 c -7.153 0 -12.973 5.819 -12.973 12.972 C 76.027 30.991 75.58 31.439 75.027 31.439 z M 66.438 16.467 c 3.933 1.521 7.069 4.657 8.59 8.59 c 1.521 -3.933 4.657 -7.07 8.591 -8.59 c -3.934 -1.521 -7.07 -4.657 -8.591 -8.59 C 73.507 11.81 70.37 14.946 66.438 16.467 z" style="stroke: none; stroke-width: 1; stroke-dasharray: none; stroke-linecap: butt; stroke-linejoin: miter; stroke-miterlimit: 10; fill: rgb(124,58,237); fill-rule: nonzero; opacity: 1;" transform=" matrix(1 0 0 1 0 0) " stroke-linecap="round"/>
	<path d="M 12.172 88.506 c -0.552 0 -1 -0.447 -1 -1 c 0 -5.609 -4.563 -10.173 -10.172 -10.173 c -0.552 0 -1 -0.447 -1 -1 s 0.448 -1 1 -1 c 5.609 0 10.172 -4.563 10.172 -10.172 c 0 -0.553 0.448 -1 1 -1 s 1 0.447 1 1 c 0 5.608 4.563 10.172 10.172 10.172 c 0.552 0 1 0.447 1 1 s -0.448 1 -1 1 c -5.609 0 -10.172 4.563 -10.172 10.173 C 13.172 88.059 12.725 88.506 12.172 88.506 z M 5.831 76.333 c 2.833 1.23 5.111 3.508 6.341 6.342 c 1.23 -2.834 3.507 -5.111 6.341 -6.342 c -2.833 -1.229 -5.111 -3.508 -6.341 -6.341 C 10.942 72.825 8.665 75.104 5.831 76.333 z" style="stroke: none; stroke-width: 1; stroke-dasharray: none; stroke-linecap: butt; stroke-linejoin: miter; stroke-miterlimit: 10; fill: rgb(124,58,237); fill-rule: nonzero; opacity: 1;" transform=" matrix(1 0 0 1 0 0) " stroke-linecap="round"/>
	<path d="M 70.722 47.411 c -15.433 0 -27.944 12.511 -27.944 27.944 c 0 -15.433 -12.511 -27.944 -27.944 -27.944 c 15.433 0 27.944 -12.511 27.944 -27.944 C 42.778 34.9 55.289 47.411 70.722 47.411 z M 75.028 2.495 c 0 7.717 -6.256 13.972 -13.972 13.972 c 7.717 0 13.972 6.256 13.972 13.972 c 0 -7.717 6.256 -13.972 13.972 -13.972 C 81.283 16.467 75.028 10.211 75.028 2.495 z M 12.172 65.161 c 0 6.17 -5.002 11.172 -11.172 11.172 c 6.17 0 11.172 5.002 11.172 11.172 c 0 -6.17 5.002 -11.172 11.172 -11.172 C 17.174 76.333 12.172 71.331 12.172 65.161 z" style="stroke: none; stroke-width: 1; stroke-dasharray: none; stroke-linecap: butt; stroke-linejoin: miter; stroke-miterlimit: 10; fill: rgb(124,58,237); fill-rule: nonzero; opacity: 1;" transform=" matrix(1 0 0 1 0 0) " stroke-linecap="round"/>
</g>
</svg>