<svg viewBox="0 0 24 24" xmlns="http://www.w3.org/2000/svg" xmlns:xlink="http://www.w3.org/1999/xlink" overflow="hidden"><path d="M2.886 4.18C5.16465 1.52406 8.49053-0.00297936 11.99-1.71661e-07 18.624 0 24 5.376 24 12.009 24 15.649 22.38 18.912 19.82 21.114L2.887 4.18ZM1.817 5.626 18.373 22.182C17.849 22.512 17.298 22.802 16.723 23.048L0.951 7.277C1.198 6.702 1.488 6.151 1.817 5.627ZM0.322 9.163 14.837 23.678C14.127 23.85 13.394 23.96 12.642 24L0 11.358C0.0393248 10.618 0.147119 9.88315 0.322 9.163ZM0.152 14.025 9.975 23.849C4.9478 22.9901 1.00991 19.0522 0.151 14.025Z" fill="#6B7290"/></svg>