<svg viewBox="0 0 24 24" xmlns="http://www.w3.org/2000/svg" xmlns:xlink="http://www.w3.org/1999/xlink" overflow="hidden"><path d="M24 10.665 16.982 10.665 23.06 7.156 21.725 4.844 15.647 8.353 19.155 2.276 16.843 0.94 13.335 7.017 13.335 0 10.665 0 10.665 7.018 7.156 0.94 4.844 2.275 8.353 8.352 2.275 4.844 0.94 7.156 7.018 10.665 0 10.665 0 13.335 7.017 13.335 0.94 16.844 2.275 19.157 8.352 15.649 4.843 21.726 7.155 23.061 10.664 16.983 10.664 24 13.334 24 13.334 16.983 16.842 23.06 19.154 21.725 15.645 15.647 21.723 19.156 23.058 16.843 16.981 13.335 23.998 13.335 23.998 10.665 24 10.665ZM12 15.631C9.98692 15.631 8.355 13.9991 8.355 11.986 8.355 9.97292 9.98692 8.341 12 8.341 14.0131 8.341 15.645 9.97292 15.645 11.986 15.645 13.9991 14.0131 15.631 12 15.631Z" fill="#6B7290"/></svg>