<svg width="32" height="32" viewBox="0 0 32 32" xmlns="http://www.w3.org/2000/svg" xmlns:xlink="http://www.w3.org/1999/xlink" overflow="hidden"><path d="M5.948 5.609C6.938 6.416 7.313 6.359 9.182 6.234L26.802 5.177C27.177 5.177 26.865 4.802 26.739 4.739L23.812 2.624C23.255 2.186 22.505 1.692 21.072 1.811L4.015 3.061C3.39 3.118 3.265 3.431 3.515 3.681ZM7.005 9.719 7.005 28.255C7.005 29.25 7.5 29.625 8.62 29.562L27.985 28.442C29.105 28.379 29.235 27.697 29.235 26.885L29.235 8.474C29.235 7.661 28.922 7.229 28.235 7.292L8.001 8.474C7.251 8.537 7.006 8.906 7.006 9.714ZM26.12 10.708C26.245 11.271 26.12 11.828 25.557 11.896L24.625 12.084 24.625 25.766C23.812 26.204 23.068 26.454 22.448 26.454 21.448 26.454 21.198 26.141 20.453 25.209L14.349 15.626 14.349 24.897 16.281 25.335C16.281 25.335 16.281 26.455 14.724 26.455L10.427 26.705C10.302 26.455 10.427 25.83 10.865 25.71L11.985 25.397 11.985 13.142 10.428 13.017C10.303 12.454 10.616 11.647 11.485 11.585L16.094 11.272 22.448 20.98 22.448 12.391 20.828 12.203C20.703 11.521 21.198 11.021 21.823 10.963ZM2.583 1.38 20.328 0.073C22.505-0.115 23.068 0.01 24.437 1.005L30.104 4.989C31.036 5.671 31.349 5.859 31.349 6.604L31.349 28.443C31.349 29.813 30.849 30.62 29.109 30.745L8.494 31.99C7.192 32.053 6.567 31.865 5.879 30.995L1.707 25.578C0.962 24.583 0.65 23.838 0.65 22.969L0.65 3.558C0.65 2.438 1.15 1.506 2.582 1.381Z" fill="#6B7290"/></svg>