<svg width="256" height="256" viewBox="0 0 24 24" xmlns="http://www.w3.org/2000/svg" xmlns:xlink="http://www.w3.org/1999/xlink" overflow="hidden"><path d="M6.004 15.492 6.004 17.996 0 11.992 1.258 10.743ZM8.508 17.996 6.004 17.996 12.008 24 13.261 22.747ZM22.748 13.249 24 11.997 12.003 0 10.75 1.251 15.491 6 12.626 6 9.317 2.692 8.065 3.944 10.125 6.004 8.691 6.004 8.691 15.314 18 15.314 18 13.882 20.06 15.942 21.312 14.69 18 11.37 18 8.506ZM6.63 5.372 5.38 6.625 6.722 7.968 7.973 6.715ZM17.285 16.027 16.038 17.278 17.38 18.621 18.633 17.37ZM3.944 8.059 2.692 9.31 6.004 12.624 6.004 10.118ZM13.88 17.996 11.376 17.996 14.69 21.308 15.94 20.056Z" fill="#6B7290"/></svg>